<svg xmlns="http://www.w3.org/2000/svg" width="499.294" height="301.934" viewBox="0 0 499.294 301.934"><defs><style>.a{fill:#ddeafc;}.b{fill:#94c3e5;}.c{fill:#b1cee8;}.d{fill:#d3e7fd;}.e{fill:#d4e9f9;}.f{fill:#f8fdff;}.g{fill:#fff;}.h{fill:#ddeff6;}.i{fill:#b2d0ea;}.j{fill:#cce0f1;}.k{fill:#daed8e;}.l{fill:#96d778;}.m{fill:#679453;}.n{fill:#dfe3e9;}.o{fill:#00aeef;}.p{fill:#949fa8;}.q{fill:#3479b7;}.q,.r,.s,.t{fill-rule:evenodd;}.r,.w{fill:#e6ad9b;}.t,.v{fill:#2e68a6;}.u{fill:#71bded;}.x{fill:#4dace9;}.y{fill:#ad8274;}.z{fill:#333;}</style></defs><g transform="translate(0.004 0.004)"><path class="a" d="M.31,266.51v.16c0,1.54-.06,5.39.12,6.94.2,1.73,34.68.92,48.08.92H499.29v-.72c-.34-4.48,0-56.61-.21-79.91h-4.77V161.23h-8.95V148.59h-6.25V128.74H472V96h-8.94V68.8h-1V95.65h-6.59v33h-9.41v66.1h-4.51V68.83l-8.94-4.54V45.23h-14.3v18.6l-6.53,4.52v48.49h-3.72v-59H385.2v80.91H375.08v-12h-20.7V41.62h-8.2V28h-2.45V19.6H341.5v-2h-1.09v2h-2.06v8.26H336V41.67h-6.65v85.44h-23.5v11.4H268.06v33H264.7V61.38H252.88V34.17H232V60.71H217.35V94H197.2V57.35H185.74v21L173.62,90.6v49h-9.57V97.91H153.31V90.66h-7.16V82.51c-4.25-.11-20.93.08-32.73,0V68.82l-8.94-4.54V45.23H90.14v18.6l-6.53,4.52v48.49H79.89v-59H57v80.91H46.91v-12H26.22V41.62H18V28H15.57V19.6H13.34v-2h-1.1v2H10.19v8.26H7.87V41.67H1.22c0,36.1-.57,72.17-.57,108.2v24.39l-.09,24.5Q.46,211,.41,223.24t-.08,24.5c0,6.9-.07,13.81-.07,20.71V275H54.34"/><rect class="b" width="105.01" height="86.47" transform="translate(8.49 187.63)"/><path class="c" d="M221.66,110.09v85h44.48V224.4h25.35v49.7h-142v-164Z"/><rect class="b" width="40.41" height="211.79" transform="translate(31.12 62.97)"/><rect class="d" width="40.41" height="211.79" transform="translate(40.79 62.97)"/><rect class="b" width="40.41" height="23.42" transform="translate(40.79 62.97)"/><rect class="b" width="40.41" height="23.42" transform="translate(40.79 103.09)"/><rect class="b" width="40.41" height="23.42" transform="translate(40.79 143.22)"/><rect class="b" width="40.41" height="23.42" transform="translate(40.79 183.35)"/><rect class="e" width="40.41" height="23.42" transform="translate(40.79 223.49)"/><rect class="b" width="40.41" height="249.33" transform="translate(98.39 25.43)"/><rect class="b" width="40.41" height="249.33" transform="translate(88.72 25.43)"/><rect class="d" width="40.41" height="23.42" transform="translate(98.39 25.42)"/><rect class="d" width="40.41" height="23.42" transform="translate(98.39 64.08)"/><rect class="d" width="40.41" height="23.42" transform="translate(98.39 102.72)"/><rect class="d" width="40.41" height="23.42" transform="translate(98.39 141.36)"/><rect class="d" width="40.41" height="23.42" transform="translate(98.39 180.02)"/><rect class="d" width="40.41" height="23.42" transform="translate(98.39 218.65)"/><rect class="b" width="40.41" height="133.67" transform="translate(138.8 141.09)"/><rect class="b" width="40.41" height="133.67" transform="translate(159.01 141.09)"/><rect class="f" width="29.21" height="4.82" transform="translate(164.86 148.25)"/><rect class="f" width="29.21" height="4.82" transform="translate(164.86 162.05)"/><rect class="f" width="29.21" height="4.82" transform="translate(164.86 175.85)"/><rect class="f" width="29.21" height="4.82" transform="translate(164.86 189.63)"/><rect class="f" width="29.21" height="4.82" transform="translate(164.86 203.44)"/><rect class="f" width="29.21" height="4.82" transform="translate(164.86 217.23)"/><rect class="f" width="29.21" height="4.82" transform="translate(164.86 231.03)"/><rect class="e" width="29.21" height="4.82" transform="translate(164.86 244.81)"/><rect class="e" width="29.21" height="4.82" transform="translate(164.86 258.62)"/><path class="g" d="M248.28,49.57H160.93a.55.55,0,0,1,0-1.09h87.35a.54.54,0,0,1,.61.48.55.55,0,0,1-.48.61Z"/><path class="g" d="M229.57,39.71a12.11,12.11,0,0,0-6.31,1.78,17.42,17.42,0,0,0-30.53-5.59A14.91,14.91,0,0,0,170.81,49h70.53a12.15,12.15,0,0,0-11.77-9.3Z"/><path class="g" d="M262.54,54.05H246.3a.68.68,0,1,1-.14-1.35h16.38a.68.68,0,0,1,0,1.35Z"/><path class="g" d="M366.25,50.24a12,12,0,0,1,2,.2A17,17,0,0,1,398.71,45c.43,0,.85-.07,1.29-.07a13.28,13.28,0,0,1,13.3,13.25H356a10.62,10.62,0,0,1,10.25-7.94Z"/><path class="g" d="M351.08,58.84h70.18a.59.59,0,1,0,0-1.18H351.08a.59.59,0,0,0-.6.59A.6.6,0,0,0,351.08,58.84Z"/><path class="g" d="M311.78,65.23h45.1a.83.83,0,0,0,.74-.9.81.81,0,0,0-.74-.73h-45.1a.82.82,0,0,0-.74.89.83.83,0,0,0,.74.74Z"/><path class="g" d="M325.26,59.07h18.13a.824.824,0,1,0,.16-1.64H325.26a.824.824,0,0,0-.17,1.64Z"/><path class="h" d="M432,35.32l-9,1.94q-6.17,1.35-12.33,2.66l-13.36,2.86-11.88,2.56-7.94,1.75-.58.12c-.52.11-.3.91.22.81l7.27-1.56L395.9,44l13.34-2.86,12.64-2.71,9.52-2.05.82-.18c.51-.11.29-.9-.22-.78Z"/><path class="h" d="M432.52,37.37l-9,1.93L411.22,42l-13.36,2.86L386,47.39l-7.92,1.73-.58.12c-.52.12-.3.92.22.8l7.24-1.6L396.44,46l13.31-2.86,12.64-2.7,9.52-2,.83-.18c.51-.11.29-.9-.23-.8Z"/><path class="i" d="M441.92,25.25l4,7.44a.32.32,0,0,0,.35.15l4.79-1.28a.31.31,0,0,0,.23-.38.27.27,0,0,0-.1-.16l-7.27-6.15a.23.23,0,0,0-.18-.08h-1.52a.31.31,0,0,0-.31.31h0a.26.26,0,0,0,.01.15Z"/><path class="i" d="M446.56,42.44,446.27,34a.28.28,0,0,1,.22-.3l4.73-1.35a.3.3,0,0,1,.38.19h0a.28.28,0,0,1,0,.18l-3.1,9a.55.55,0,0,1-.14.17l-1.3.76a.32.32,0,0,1-.43-.1A.26.26,0,0,1,446.56,42.44Z"/><path class="h" d="M455.4,29.59c-2.67.09-17.86,4.45-17.93,4.35A6.15,6.15,0,0,0,436,32.41a2.27,2.27,0,0,0-1.68-.37c-.19.05.87,2.58,1.27,3.71a.28.28,0,0,0,.32.18c4.06-.8,22-5.51,21.83-5.67a3.25,3.25,0,0,0-2.33-.68Z"/><path class="j" d="M436.1,36.5a.27.27,0,0,0-.18.32,4.929,4.929,0,0,0,.53,1.2c.15,0,17.28-4.67,19.76-5.56.78-.29,1.9-1.43,1.69-1.74S440.4,35.27,436.1,36.5Z"/><path class="k" d="M187.05,275.28s1.58-30.07-20.49-34.06-27.79,10.72-36.33,17-27.24.62-33.55-17S74.61,201.4,56.23,203.55s-21.54,15.37-26.8,16.91S6.33,216.55,1.33,235,7,275.28,7,275.28Z"/><path class="l" d="M21.49,274.88a3.17,3.17,0,0,1,.22-1.36c.71-3,1.52-6.14,3.33-8.74a18,18,0,0,1,6.89-5.61,31,31,0,0,1,10-2.85c6.19-.78,13.35-.21,19.06,2.48,5,2.32,9.2,5.95,14.25,8.07a30.55,30.55,0,0,0,17,1.52,62.635,62.635,0,0,1,7.16-1.34,9.06,9.06,0,0,1,6.81,2,30.465,30.465,0,0,0,2.37,2.45c.8.58,5.62,2.44,3.93,3.56-.38.26-1.7,0-2.14.05-3.23,0-6.46,0-9.68.07q-16.14.07-32.26.09H35.52c-3.3,0-6.6,0-9.9-.05-.93,0-3.05.38-3.91-.08A.47.47,0,0,1,21.49,274.88Z"/><path class="k" d="M345.1,244.94c8.57,1,18.4,1.25,24.24-5.05,2.83-3,4.19-7.14,6.59-10.52,5.48-7.74,15.85-10.77,25.29-9.92,10.89,1,19.9,6.26,29.52,10.72,7.68,3.54,18.46,5.72,25.22-.71,12.34-11.83,28.44-8.08,28.44-8.08,28.88,11.43,6.84,54,6.84,54l-180.59-.2c-.41-8.14-.06-19.1,6.43-25.12,7.5-7,18.21-6.25,27.64-5.1Z"/><path class="l" d="M497.84,275.32s-3.16-7.73-14.71-7.9-18.74-7.36-28.72-5.61-16.64,8.93-20.67,9.11-16-1.53-17.37,4.4Z"/><path class="m" d="M416.05,168.33C380,260,409.5,275.23,409.5,275.23c4.69.2,8.4,0,13.1,0,0,0,29.52-15.29-6.54-107"/><path class="l" d="M386.43,191.14C358.13,263,381.29,275,381.29,275c3.67.17,6.53,0,10.28,0,0,0,23.12-11.95-5.14-83.85"/><ellipse class="n" cx="45.32" cy="5.07" rx="45.32" ry="5.07" transform="translate(129.58 291.57)"/><path class="o" d="M327.44,11.77V295.32a3.48,3.48,0,0,0,3.48,3.48h0a3.48,3.48,0,0,0,3.48-3.48h0V11.77a3.48,3.48,0,0,0-3.48-3.48h0a3.48,3.48,0,0,0-3.48,3.48Z"/><path class="o" d="M316.73,298.8h0a3.13,3.13,0,0,0,3.13,3.13H342a3.13,3.13,0,0,0,3.13-3.13h0a3.13,3.13,0,0,0-3.13-3.12H319.86A3.13,3.13,0,0,0,316.73,298.8Z"/><circle class="o" cx="4.74" cy="4.74" r="4.74" transform="translate(326.18 1.65)"/><path class="o" d="M329.34,20H306l.72,2.06,22.65.79Z"/><rect class="o" width="11.27" height="2.85" transform="translate(323.14 52.44)"/><rect class="o" width="9.58" height="2.85" transform="translate(324.83 63.04)"/><path class="o" d="M296.34,20.47c-7.69.46-15.3-1.92-22.19-5.35-3.1-1.54-6.43-3.82-6.75-7.26a7.08,7.08,0,0,1,4.05-6.54,14.7,14.7,0,0,1,8-1.2A34,34,0,0,1,301.14,10.3a8,8,0,0,1,2,3c.88,2.79-1.19,7.25-6.82,7.19"/><path class="o" d="M325.47,68.33l-.08.08a.78.78,0,0,1-1.1-.06,2.16,2.16,0,0,1-.47-1.24,21.868,21.868,0,0,0-.75-5.15c-.42-1.1-.81-2.21-1.21-3.32-1-2.68-1.95-5.36-3-8-2.35-6.22-4.85-12.39-7.8-18.35-3.32-6.62-7.31-14.48-13.81-18.53-.72-.45-1.54-1-1.59-1.85,0-.27,2.21.55,2.33.6a25.44,25.44,0,0,1,5.91,3.68c7.09,5.72,11.91,13.89,15.21,22.26a91.68,91.68,0,0,1,4,12.94c1.23,5.29,2.53,11,2.43,16.44V68a1,1,0,0,1-.09.34Z"/><path class="p" d="M403.29,301.37a3.636,3.636,0,0,0-.07-.59,17.61,17.61,0,0,1,15.72-19.33c.61-.06,1.22-.09,1.84-.09h1a17.6,17.6,0,0,1,17.65,17.55,16.738,16.738,0,0,1-.1,1.87,1.809,1.809,0,0,1-.08.59Z"/><path class="p" d="M221.45,301.37a3.636,3.636,0,0,0-.07-.59,17.61,17.61,0,0,1,15.72-19.33c.61-.06,1.22-.09,1.84-.09h1a17.61,17.61,0,0,1,17.66,17.56,16.56,16.56,0,0,1-.1,1.86,1.809,1.809,0,0,1-.08.59Z"/><path class="p" d="M39.61,301.37a3.81,3.81,0,0,0-.07-.59,17.6,17.6,0,0,1,15.68-19.33c.62-.06,1.25-.09,1.87-.09h1a17.6,17.6,0,0,1,17.65,17.55,16.736,16.736,0,0,1-.1,1.87,1.68,1.68,0,0,1-.07.59Z"/><path class="q" d="M158,167.78c-1,8.07-2.59,11.12-3.1,19.24-1.8,18.34-4.35,31.38-2.05,50.17,1.5,5.6,11.24,6,13.75-1.28l2.63-19.71-.95-46.7Z"/><path class="r" d="M166,272.82a23.411,23.411,0,0,0-.07,2.78,6.35,6.35,0,0,0,1.82,4.42c2.32,2.55,2.05,4,.65,5.75-1.64,2.08-2.79,3.11-3.5,4.48-2.68,5.13-3.16,6.9-5.34,7.63-2.55.84-9.29,1.22-12.32,1.06-.13-3,3.83-2.68,7.36-5.38-.12-5.27,1.83-10.9,2.81-16.33a16.58,16.58,0,0,0,0-3.66Z"/><path class="s" d="M166.94,279a9.364,9.364,0,0,0,.79,1c2.31,2.55,2,4,.64,5.75-1.64,2.08-2.79,3.11-3.5,4.48-2.68,5.13-3.16,6.9-5.34,7.63-2.55.84-9.29,1.22-12.32,1.06-.13-3,3.72-2.68,7.22-5.27a8.19,8.19,0,0,0,3.19-.31C161.48,291.45,164.22,282.49,166.94,279Z"/><path class="s" d="M169.34,283.92c-1.24,6.16-1.06,7.1-.77,13.57l-1,.09c-.16-6.63-.65-8.58-2.14-11.62Z"/><path class="q" d="M153.24,238.27l3.45,41.28,11.08-.63,1.43-20.07-2.37-23.26C166.59,229.6,152.56,228.8,153.24,238.27Z"/><path class="t" d="M174.9,162c3.11,14.93,9.15,14.63,12.3,24.56,1.53,4.81.64,11.81-.54,21.16-1.34,10.56-1.58,15.89-2,21.1-.67,7.93-4.19,10.06-7.62,9.53s-6.53-3.44-7.41-9.45c-1.19-6.23-2.42-13.5-3.12-20.72-1.15-11.95-2.72-24.56-4.29-36.49Z"/><path class="r" d="M219.35,242.32a28,28,0,0,0,2.38,1.5,6.1,6.1,0,0,0,4.67.65c3.29-.71,4.39.24,5.28,2.4a44.16,44.16,0,0,0,2.25,5.37c3.21,5,4.5,6.32,4.12,8.61-.45,2.68-3.26,8.79-4.82,11.38-2.67-1.43-.52-4.75-1.22-9.23-4.62-2.61-8.57-7.21-12.86-10.86a16.458,16.458,0,0,0-3.16-1.92Z"/><path class="t" d="M182.44,224.71c4.72,2.6,12.25,2,19,5.5l24.67,12.93-4.53,11.22-19.32-7.58-27.15-8.95C169.24,235.27,169.92,220.3,182.44,224.71Z"/><path class="s" d="M225.2,244.62a8.622,8.622,0,0,0,1.24-.18c3.28-.72,4.38.23,5.27,2.39A43.51,43.51,0,0,0,234,252.2c3.21,5,4.5,6.33,4.11,8.62-.45,2.67-3.25,8.79-4.81,11.37-2.64-1.43-.58-4.65-1.19-9.05a8.419,8.419,0,0,0,1.21-3C233.4,255.83,226.94,248.8,225.2,244.62Z"/><path class="s" d="M230.55,245c4.76,4.25,5.66,4.58,11.38,7.63l-.39.92c-5.81-3.25-7.72-3.83-11.06-4.08Z"/><path d="M160.35,93.48a29.917,29.917,0,0,0-.06,3.28c.22,2.49.38,3.48,2.4,5.45L164.12,95Z"/><path class="u" d="M153.62,145.94s-3.91,1.81-3.26,5.16l6.81,4.25,3,1.86,1.89-8.12-1.14-3.82Z"/><path class="v" d="M173.73,114.54c.45.71-3.69,2.66-4,2.86,0,0-.09.06-.09.11a.14.14,0,0,0,.06.11c.32.33.71.55,1,.86.11.1.22.24.16.37s-.18.15-.3.17a14,14,0,0,1-1.71.08,2.89,2.89,0,0,0-.72,0c-.63.14-1.07,1-1.42,1.52-.48.66-1,1.33-1.43,2a33,33,0,0,0-2.15,4,40,40,0,0,0-2.14,4.94,11.85,11.85,0,0,0-.83,4.28v.09a.13.13,0,0,0,.1,0l.56.06h.09v-.09a10.11,10.11,0,0,1,1.29-3.13,11.411,11.411,0,0,1,1.38-2.3c3.81-4,6-8.75,10.43-11.7A2.5,2.5,0,0,0,175,118a.82.82,0,0,0-.21-1.1,8.7,8.7,0,0,0-1.06-2.36Z"/><path class="w" d="M175.05,118l-1.25-3.2a22.819,22.819,0,0,1-3.27,1c-.71.15-2.33.71-2.91-.06a2.84,2.84,0,0,1-.3-.89,1.58,1.58,0,0,0-.95-1,.427.427,0,0,1-.36-.23.845.845,0,0,1,.05-.51.86.86,0,0,0-.59-.71c-.29-.14-.64-.3-.71-.62a1.78,1.78,0,0,1,0-.65c0-1.85-2-.9-2.57-1.9-.47-.8.31-2,.43-2.8a8,8,0,0,0-.8-4.4c-2.95-6.8,2.94-11.65,5-13.21,4-3.11,11.76-2.52,15.19,2.74a8.75,8.75,0,0,1,0,9.82,2.91,2.91,0,0,0-.23,3.31c1,1.94,2.86,6.51,2.86,6.51Z"/><path class="u" d="M160.52,158.57c-2.15,3.83-7.46,15.84-10.24,19.17,1.11,1.52,6.82,6.26,6.72,6.48,1.69-3.7,3.47-15.78,5-19.56.16-.4-.41-1.85-.5-2.28C161.28,161.26,161.26,159.45,160.52,158.57Z"/><path class="g" d="M182.33,111.15l-9.84,8.33a9.1,9.1,0,0,0-1,1l-4.77,5.88s-5.15,6-5.8,9.62.8,8.51.8,8.51Z"/><path class="w" d="M165.94,140.41l-5-4.39a3.57,3.57,0,0,0-3.87,1.29l-5.8,1.16-4,.1a1.24,1.24,0,0,0-1.22,1.24v.15a.47.47,0,0,0,.47.45,7.521,7.521,0,0,1,1.7.2,15.5,15.5,0,0,0,.78,2c.26.39.81,1.29,4.55.71l-3.35.15s0,2.33,1.69,2.2l1.08-.09s-.39.78.78,1.29,4.13-.51,6.19-.25l2.07.25Z"/><path class="x" d="M186,146l8.57-30.88a15.93,15.93,0,0,0-6.68-2.51l-.15-.3a5.89,5.89,0,0,1-3.79,1.24c-2.68,0-7.45,8.89-8.76,10.72-3.29,4.51-6.78,8.9-10.41,13.16-5.12,7.8-5.29,12.14-5.14,13.57a16.358,16.358,0,0,1,.11,1.71l.17,10.23-.44,24.88,31.75-12.14-3.76-13.15Z"/><path class="u" d="M160.21,150.54s30.6,9.06,32.86,9.29,3.34-2.5,4.59-6.68,6.27-32.35-3.13-38l-2.09-1.25s-8.57,1-8.76,11.26.42,20.87.42,20.87l-19.76-7.43S160.83,139.89,160.21,150.54Z"/><path d="M179.82,101.21s1.14,1.15,2.06.12,3.52-4.12,1.93-9.93c-1.37-5-4.45-9.6-13-8.8a11.81,11.81,0,0,0-10.45,10.88c-.06,1.52,3.72,2.65,5,3.09a21.72,21.72,0,0,0,5.42,1.08c1.67.11,3.06.16,4.2,1.63a1.331,1.331,0,0,0,.35.36.83.83,0,0,0,1-.26,3.14,3.14,0,0,0,.44-1.22c.1-.48.55-1.86,1.16-1.93s.54,1.35.71,1.77c.22.58-.06,1.26.14,1.81A4.93,4.93,0,0,0,179.82,101.21Z"/><path d="M174.57,82.83s5.1-5.46-1.43-9c-2.93-1.59-6.32.4-7.67,2.94-.78,1.48-.29,5.41,1.43,6.62C168.43,84.47,174.57,82.83,174.57,82.83Z"/><path class="v" d="M188.46,112l-.15-.16c-.46-.49-2.67-3.3-3.3-3.17-1.24.25-1.89,1.13-2.73,2a30.192,30.192,0,0,0-2.44,2.86c-1.53,2-2.86,4.2-4.24,6.31-2.41,3.67-11,17-11.23,18.73.8.35,1.64.62,2.44,1l5.78-7.5a37.477,37.477,0,0,1,4.44-4.29c.33-.32,5-4.91,5-4.9l-1.6-1.32c-.18-.14-.35-.41-.18-.54a.5.5,0,0,1,.24-.06c1.07,0,2.18.25,2.86-.71l5-6.89a1.25,1.25,0,0,0,.33-.78A1,1,0,0,0,188.46,112Z"/><path class="w" d="M178.66,102.44s3.27-2.76,1.61-5.23-3-1.64-3.5,1.17A3.78,3.78,0,0,0,178.66,102.44Z"/><path class="y" d="M173.77,114.8a19.72,19.72,0,0,0,5.2-5.64l-4.13,8.36Z"/><path class="v" d="M181.37,163.31s.91,4.4.91,4.76a5.47,5.47,0,0,1-4.48,5.6,4.28,4.28,0,0,1-3.46-.61,5.6,5.6,0,0,1-1.23-1.34,13.34,13.34,0,0,1-2.23-5.34C171,166.93,180.44,163.89,181.37,163.31Z"/><path class="z" d="M157.51,137.17c.25-.13-3.6-2.93-5.61-4.41a3.54,3.54,0,0,0-2.64-.62l-6.28.94a.69.69,0,0,0-.59.76.67.67,0,0,0,.27.46l5.28,4.13C148.52,138.88,155.12,138.42,157.51,137.17Z"/><path d="M156.59,137.17a37.728,37.728,0,0,0-4.75-3.69,3,3,0,0,0-2.2-.53l-5.28.8a.58.58,0,0,0-.28,1l4.5,3.52C149,138.63,154.56,138.24,156.59,137.17Z"/><path class="y" d="M158,139.68a51.207,51.207,0,0,1-5.92.88,9.72,9.72,0,0,1-5.7-.78c-.37-.19-.7.37-.32.57a10,10,0,0,0,5.79.88,53.829,53.829,0,0,0,6.33-.88c.41-.09.24-.72-.18-.63Z"/><path class="y" d="M157.79,143.27a23.291,23.291,0,0,1-4.57.44c-1.1,0-3.37.1-3.52-1.44,0-.41-.71-.42-.66,0,.2,1.7,2,2,3.4,2.08a24.71,24.71,0,0,0,5.56-.44c.42-.09.24-.72-.17-.65Z"/><path class="y" d="M158.52,145.69a18.91,18.91,0,0,1-5.59.81.33.33,0,0,0-.28.38.34.34,0,0,0,.28.28,18.84,18.84,0,0,0,5.77-.84C159.1,146.2,158.93,145.55,158.52,145.69Z"/></g></svg>